<mxfile host="app.diagrams.net" modified="2023-07-05T08:55:30.589Z" agent="Mozilla/5.0 (Windows NT 10.0; Win64; x64) AppleWebKit/537.36 (KHTML, like Gecko) Chrome/114.0.0.0 Safari/537.36 Edg/114.0.1823.67" etag="gfSJybtSYpw-VA1LUM4j" version="21.5.2" type="github">
  <diagram name="Page-1" id="13e1069c-82ec-6db2-03f1-153e76fe0fe0">
    <mxGraphModel dx="1750" dy="955" grid="1" gridSize="10" guides="1" tooltips="1" connect="1" arrows="1" fold="1" page="1" pageScale="1" pageWidth="1100" pageHeight="850" background="none" math="0" shadow="0">
      <root>
        <mxCell id="0" />
        <mxCell id="1" parent="0" />
        <mxCell id="_nKnMAWIsF47tJlzfX2x-1" value="User" style="shape=umlActor;verticalLabelPosition=top;verticalAlign=bottom;html=1;labelPosition=center;align=center;" vertex="1" parent="1">
          <mxGeometry x="55" y="30" width="30" height="60" as="geometry" />
        </mxCell>
        <mxCell id="_nKnMAWIsF47tJlzfX2x-2" style="edgeStyle=orthogonalEdgeStyle;rounded=0;orthogonalLoop=1;jettySize=auto;html=1;dashed=1;endArrow=none;endFill=0;" edge="1" parent="1" source="_nKnMAWIsF47tJlzfX2x-3">
          <mxGeometry relative="1" as="geometry">
            <mxPoint x="180" y="680" as="targetPoint" />
            <Array as="points">
              <mxPoint x="180" y="606" />
            </Array>
          </mxGeometry>
        </mxCell>
        <mxCell id="_nKnMAWIsF47tJlzfX2x-3" value="Repository Code Management (GitHub.com)" style="html=1;whiteSpace=wrap;" vertex="1" parent="1">
          <mxGeometry x="125" y="30" width="110" height="60" as="geometry" />
        </mxCell>
        <mxCell id="_nKnMAWIsF47tJlzfX2x-4" value="Acure DevOps CI" style="whiteSpace=wrap;html=1;" vertex="1" parent="1">
          <mxGeometry x="260" y="30" width="120" height="60" as="geometry" />
        </mxCell>
        <mxCell id="_nKnMAWIsF47tJlzfX2x-5" value="JMeter" style="whiteSpace=wrap;html=1;" vertex="1" parent="1">
          <mxGeometry x="420" y="30" width="120" height="60" as="geometry" />
        </mxCell>
        <mxCell id="_nKnMAWIsF47tJlzfX2x-6" value="Notification (Email)" style="whiteSpace=wrap;html=1;" vertex="1" parent="1">
          <mxGeometry x="890" y="30" width="120" height="60" as="geometry" />
        </mxCell>
        <mxCell id="_nKnMAWIsF47tJlzfX2x-7" value="Dashboard Report" style="whiteSpace=wrap;html=1;" vertex="1" parent="1">
          <mxGeometry x="570" y="30" width="120" height="60" as="geometry" />
        </mxCell>
        <mxCell id="_nKnMAWIsF47tJlzfX2x-8" style="edgeStyle=orthogonalEdgeStyle;rounded=0;orthogonalLoop=1;jettySize=auto;html=1;dashed=1;endArrow=none;endFill=0;" edge="1" parent="1">
          <mxGeometry relative="1" as="geometry">
            <mxPoint x="321" y="670" as="targetPoint" />
            <mxPoint x="320.5" y="90" as="sourcePoint" />
            <Array as="points">
              <mxPoint x="320" y="345" />
              <mxPoint x="320" y="345" />
            </Array>
          </mxGeometry>
        </mxCell>
        <mxCell id="_nKnMAWIsF47tJlzfX2x-9" style="edgeStyle=orthogonalEdgeStyle;rounded=0;orthogonalLoop=1;jettySize=auto;html=1;dashed=1;endArrow=none;endFill=0;" edge="1" parent="1">
          <mxGeometry relative="1" as="geometry">
            <mxPoint x="480" y="670" as="targetPoint" />
            <mxPoint x="479.5" y="90" as="sourcePoint" />
          </mxGeometry>
        </mxCell>
        <mxCell id="_nKnMAWIsF47tJlzfX2x-10" style="edgeStyle=orthogonalEdgeStyle;rounded=0;orthogonalLoop=1;jettySize=auto;html=1;dashed=1;endArrow=none;endFill=0;" edge="1" parent="1">
          <mxGeometry relative="1" as="geometry">
            <mxPoint x="630" y="680" as="targetPoint" />
            <mxPoint x="629.5" y="90" as="sourcePoint" />
          </mxGeometry>
        </mxCell>
        <mxCell id="_nKnMAWIsF47tJlzfX2x-11" style="edgeStyle=orthogonalEdgeStyle;rounded=0;orthogonalLoop=1;jettySize=auto;html=1;dashed=1;endArrow=none;endFill=0;" edge="1" parent="1" source="_nKnMAWIsF47tJlzfX2x-24">
          <mxGeometry relative="1" as="geometry">
            <mxPoint x="949.17" y="680" as="targetPoint" />
            <mxPoint x="949.17" y="90" as="sourcePoint" />
            <Array as="points">
              <mxPoint x="949" y="600" />
              <mxPoint x="949" y="600" />
            </Array>
          </mxGeometry>
        </mxCell>
        <mxCell id="_nKnMAWIsF47tJlzfX2x-12" style="edgeStyle=orthogonalEdgeStyle;rounded=0;orthogonalLoop=1;jettySize=auto;html=1;dashed=1;endArrow=none;endFill=0;" edge="1" parent="1">
          <mxGeometry relative="1" as="geometry">
            <mxPoint x="70" y="690" as="targetPoint" />
            <mxPoint x="70" y="105" as="sourcePoint" />
            <Array as="points">
              <mxPoint x="70" y="105" />
            </Array>
          </mxGeometry>
        </mxCell>
        <mxCell id="_nKnMAWIsF47tJlzfX2x-13" value="Push Commit" style="html=1;verticalAlign=bottom;startArrow=oval;startFill=1;endArrow=block;startSize=8;edgeStyle=elbowEdgeStyle;elbow=vertical;curved=0;rounded=0;" edge="1" parent="1">
          <mxGeometry width="60" relative="1" as="geometry">
            <mxPoint x="70" y="145" as="sourcePoint" />
            <mxPoint x="180" y="145" as="targetPoint" />
          </mxGeometry>
        </mxCell>
        <mxCell id="_nKnMAWIsF47tJlzfX2x-14" value="Trigger Running CI" style="html=1;verticalAlign=bottom;endArrow=block;edgeStyle=elbowEdgeStyle;elbow=vertical;curved=0;rounded=0;" edge="1" parent="1">
          <mxGeometry width="80" relative="1" as="geometry">
            <mxPoint x="180" y="175" as="sourcePoint" />
            <mxPoint x="320" y="175" as="targetPoint" />
          </mxGeometry>
        </mxCell>
        <mxCell id="_nKnMAWIsF47tJlzfX2x-15" value="" style="html=1;points=[];perimeter=orthogonalPerimeter;outlineConnect=0;targetShapes=umlLifeline;portConstraint=eastwest;newEdgeStyle={&quot;edgeStyle&quot;:&quot;elbowEdgeStyle&quot;,&quot;elbow&quot;:&quot;vertical&quot;,&quot;curved&quot;:0,&quot;rounded&quot;:0};" vertex="1" parent="1">
          <mxGeometry x="175" y="200" width="10" height="75" as="geometry" />
        </mxCell>
        <mxCell id="_nKnMAWIsF47tJlzfX2x-16" value="check new commit" style="html=1;verticalAlign=bottom;endArrow=block;edgeStyle=elbowEdgeStyle;elbow=vertical;curved=0;rounded=0;" edge="1" parent="1" target="_nKnMAWIsF47tJlzfX2x-15">
          <mxGeometry relative="1" as="geometry">
            <mxPoint x="320" y="215" as="sourcePoint" />
            <Array as="points">
              <mxPoint x="240" y="215" />
            </Array>
          </mxGeometry>
        </mxCell>
        <mxCell id="_nKnMAWIsF47tJlzfX2x-17" value="send New commit" style="html=1;verticalAlign=bottom;endArrow=open;dashed=1;endSize=8;edgeStyle=elbowEdgeStyle;elbow=vertical;curved=0;rounded=0;" edge="1" parent="1" source="_nKnMAWIsF47tJlzfX2x-15">
          <mxGeometry relative="1" as="geometry">
            <mxPoint x="320" y="265" as="targetPoint" />
          </mxGeometry>
        </mxCell>
        <mxCell id="_nKnMAWIsF47tJlzfX2x-18" value="" style="html=1;points=[];perimeter=orthogonalPerimeter;outlineConnect=0;targetShapes=umlLifeline;portConstraint=eastwest;newEdgeStyle={&quot;edgeStyle&quot;:&quot;elbowEdgeStyle&quot;,&quot;elbow&quot;:&quot;vertical&quot;,&quot;curved&quot;:0,&quot;rounded&quot;:0};" vertex="1" parent="1">
          <mxGeometry x="475" y="295" width="10" height="50" as="geometry" />
        </mxCell>
        <mxCell id="_nKnMAWIsF47tJlzfX2x-19" value="Trigger Running Test" style="html=1;verticalAlign=bottom;endArrow=block;edgeStyle=elbowEdgeStyle;elbow=vertical;curved=0;rounded=0;" edge="1" parent="1" target="_nKnMAWIsF47tJlzfX2x-18">
          <mxGeometry relative="1" as="geometry">
            <mxPoint x="321" y="305" as="sourcePoint" />
          </mxGeometry>
        </mxCell>
        <mxCell id="_nKnMAWIsF47tJlzfX2x-20" value="Send Test Result" style="html=1;verticalAlign=bottom;endArrow=open;dashed=1;endSize=8;edgeStyle=elbowEdgeStyle;elbow=vertical;curved=0;rounded=0;" edge="1" parent="1" source="_nKnMAWIsF47tJlzfX2x-18">
          <mxGeometry relative="1" as="geometry">
            <mxPoint x="630" y="335" as="targetPoint" />
            <Array as="points">
              <mxPoint x="600" y="335" />
            </Array>
          </mxGeometry>
        </mxCell>
        <mxCell id="_nKnMAWIsF47tJlzfX2x-21" value="" style="html=1;points=[];perimeter=orthogonalPerimeter;outlineConnect=0;targetShapes=umlLifeline;portConstraint=eastwest;newEdgeStyle={&quot;edgeStyle&quot;:&quot;elbowEdgeStyle&quot;,&quot;elbow&quot;:&quot;vertical&quot;,&quot;curved&quot;:0,&quot;rounded&quot;:0};" vertex="1" parent="1">
          <mxGeometry x="475" y="375" width="10" height="80" as="geometry" />
        </mxCell>
        <mxCell id="_nKnMAWIsF47tJlzfX2x-22" value="Generate Dashboard Report" style="html=1;verticalAlign=bottom;endArrow=block;edgeStyle=elbowEdgeStyle;elbow=vertical;curved=0;rounded=0;" edge="1" parent="1" target="_nKnMAWIsF47tJlzfX2x-21">
          <mxGeometry x="0.0566" relative="1" as="geometry">
            <mxPoint x="321" y="375" as="sourcePoint" />
            <Array as="points">
              <mxPoint x="420" y="390" />
              <mxPoint x="420" y="380" />
            </Array>
            <mxPoint as="offset" />
          </mxGeometry>
        </mxCell>
        <mxCell id="_nKnMAWIsF47tJlzfX2x-23" value="Get Dashboard Report" style="html=1;verticalAlign=bottom;endArrow=open;dashed=1;endSize=8;edgeStyle=elbowEdgeStyle;elbow=vertical;curved=0;rounded=0;" edge="1" parent="1" source="_nKnMAWIsF47tJlzfX2x-21">
          <mxGeometry relative="1" as="geometry">
            <mxPoint x="321" y="450" as="targetPoint" />
          </mxGeometry>
        </mxCell>
        <mxCell id="_nKnMAWIsF47tJlzfX2x-25" value="Push API Send Notification" style="html=1;verticalAlign=bottom;endArrow=block;edgeStyle=elbowEdgeStyle;elbow=vertical;curved=0;rounded=0;" edge="1" parent="1" target="_nKnMAWIsF47tJlzfX2x-24">
          <mxGeometry x="0.0196" relative="1" as="geometry">
            <mxPoint x="319" y="555" as="sourcePoint" />
            <Array as="points">
              <mxPoint x="546" y="560" />
            </Array>
            <mxPoint as="offset" />
          </mxGeometry>
        </mxCell>
        <mxCell id="_nKnMAWIsF47tJlzfX2x-26" value="Send Notification Test Report" style="html=1;verticalAlign=bottom;endArrow=open;dashed=1;endSize=8;edgeStyle=elbowEdgeStyle;elbow=vertical;curved=0;rounded=0;" edge="1" parent="1">
          <mxGeometry x="0.0638" y="-5" relative="1" as="geometry">
            <mxPoint x="68" y="590" as="targetPoint" />
            <mxPoint as="offset" />
            <mxPoint x="945" y="590" as="sourcePoint" />
          </mxGeometry>
        </mxCell>
        <mxCell id="_nKnMAWIsF47tJlzfX2x-27" value="Open Dashboard report" style="html=1;verticalAlign=bottom;startArrow=oval;startFill=1;endArrow=block;startSize=8;edgeStyle=elbowEdgeStyle;elbow=vertical;curved=0;rounded=0;" edge="1" parent="1">
          <mxGeometry x="0.1429" width="60" relative="1" as="geometry">
            <mxPoint x="68" y="650" as="sourcePoint" />
            <mxPoint x="628" y="650" as="targetPoint" />
            <mxPoint as="offset" />
          </mxGeometry>
        </mxCell>
        <mxCell id="_nKnMAWIsF47tJlzfX2x-31" value="OpenAI API" style="whiteSpace=wrap;html=1;" vertex="1" parent="1">
          <mxGeometry x="730" y="30" width="120" height="60" as="geometry" />
        </mxCell>
        <mxCell id="_nKnMAWIsF47tJlzfX2x-33" value="" style="edgeStyle=orthogonalEdgeStyle;rounded=0;orthogonalLoop=1;jettySize=auto;html=1;dashed=1;endArrow=none;endFill=0;" edge="1" parent="1">
          <mxGeometry relative="1" as="geometry">
            <mxPoint x="790" y="680" as="targetPoint" />
            <mxPoint x="790.5" y="90" as="sourcePoint" />
            <Array as="points">
              <mxPoint x="790" y="260" />
              <mxPoint x="790" y="260" />
            </Array>
          </mxGeometry>
        </mxCell>
        <mxCell id="_nKnMAWIsF47tJlzfX2x-35" value="" style="edgeStyle=orthogonalEdgeStyle;rounded=0;orthogonalLoop=1;jettySize=auto;html=1;dashed=1;endArrow=none;endFill=0;" edge="1" parent="1" target="_nKnMAWIsF47tJlzfX2x-24">
          <mxGeometry relative="1" as="geometry">
            <mxPoint x="949.17" y="680" as="targetPoint" />
            <mxPoint x="949.17" y="90" as="sourcePoint" />
            <Array as="points">
              <mxPoint x="950" y="440" />
              <mxPoint x="950" y="440" />
            </Array>
          </mxGeometry>
        </mxCell>
        <mxCell id="_nKnMAWIsF47tJlzfX2x-24" value="" style="html=1;points=[];perimeter=orthogonalPerimeter;outlineConnect=0;targetShapes=umlLifeline;portConstraint=eastwest;newEdgeStyle={&quot;edgeStyle&quot;:&quot;elbowEdgeStyle&quot;,&quot;elbow&quot;:&quot;vertical&quot;,&quot;curved&quot;:0,&quot;rounded&quot;:0};" vertex="1" parent="1">
          <mxGeometry x="945" y="540" width="10" height="65" as="geometry" />
        </mxCell>
        <mxCell id="_nKnMAWIsF47tJlzfX2x-37" value="Call OpenAI API" style="html=1;verticalAlign=bottom;endArrow=block;edgeStyle=elbowEdgeStyle;elbow=vertical;curved=0;rounded=0;" edge="1" parent="1">
          <mxGeometry x="0.0566" relative="1" as="geometry">
            <mxPoint x="320" y="480" as="sourcePoint" />
            <Array as="points">
              <mxPoint x="701" y="480" />
              <mxPoint x="1022" y="475" />
            </Array>
            <mxPoint as="offset" />
            <mxPoint x="785" y="480" as="targetPoint" />
          </mxGeometry>
        </mxCell>
        <mxCell id="_nKnMAWIsF47tJlzfX2x-38" value="Get Response" style="html=1;verticalAlign=bottom;endArrow=open;dashed=1;endSize=8;edgeStyle=elbowEdgeStyle;elbow=vertical;curved=0;rounded=0;" edge="1" parent="1">
          <mxGeometry relative="1" as="geometry">
            <mxPoint x="320" y="520" as="targetPoint" />
            <mxPoint x="785" y="520" as="sourcePoint" />
          </mxGeometry>
        </mxCell>
        <mxCell id="_nKnMAWIsF47tJlzfX2x-39" value="" style="html=1;points=[];perimeter=orthogonalPerimeter;outlineConnect=0;targetShapes=umlLifeline;portConstraint=eastwest;newEdgeStyle={&quot;edgeStyle&quot;:&quot;elbowEdgeStyle&quot;,&quot;elbow&quot;:&quot;vertical&quot;,&quot;curved&quot;:0,&quot;rounded&quot;:0};" vertex="1" parent="1">
          <mxGeometry x="785" y="460" width="10" height="80" as="geometry" />
        </mxCell>
      </root>
    </mxGraphModel>
  </diagram>
</mxfile>
